<svg width="22" height="21" viewBox="0 0 22 21" fill="none" xmlns="http://www.w3.org/2000/svg">
<path d="M20.9121 8.89626L19.9087 13.1762C19.0486 16.8725 17.3489 18.3674 14.1543 18.0602C13.6424 18.0193 13.0895 17.9271 12.4956 17.7838L10.7754 17.3742C6.50575 16.3605 5.18491 14.2513 6.18834 9.97136L7.19177 5.68119C7.39655 4.81087 7.64229 4.05318 7.94946 3.4286C9.14743 0.950742 11.185 0.285202 14.6049 1.09409L16.3148 1.49341C20.605 2.49684 21.9156 4.61633 20.9121 8.89626Z" stroke="#292D32" stroke-width="1.5" stroke-linecap="round" stroke-linejoin="round"/>
<path d="M14.1545 18.0603C13.5197 18.4904 12.721 18.8487 11.7483 19.1661L10.1305 19.6986C6.06564 21.0092 3.92567 19.9136 2.60483 15.8487L1.29423 11.8042C-0.0163692 7.73934 1.06897 5.58913 5.13388 4.27853L6.75166 3.7461C7.17146 3.61299 7.57078 3.50036 7.94963 3.42869C7.64245 4.05327 7.39672 4.81096 7.19194 5.68128L6.18851 9.97145C5.18508 14.2514 6.50592 16.3606 10.7756 17.3743L12.4958 17.7839C13.0896 17.9272 13.6425 18.0194 14.1545 18.0603Z" stroke="#292D32" stroke-width="1.5" stroke-linecap="round" stroke-linejoin="round"/>
<path d="M11.6759 6.94037L16.6419 8.19978" stroke="#292D32" stroke-width="1.5" stroke-linecap="round" stroke-linejoin="round"/>
<path d="M10.673 10.903L13.6424 11.6607" stroke="#292D32" stroke-width="1.5" stroke-linecap="round" stroke-linejoin="round"/>
</svg>
