<svg width="22" height="18" viewBox="0 0 22 18" fill="none" xmlns="http://www.w3.org/2000/svg">
<path d="M16.1135 0.767799H5.87622C1.95533 0.767799 0.859935 1.70963 0.767799 5.3746C2.7436 5.3746 4.34063 6.98186 4.34063 8.95766C4.34063 10.9335 2.7436 12.5305 0.767799 12.5407C0.859935 16.2057 1.95533 17.1475 5.87622 17.1475H16.1135C20.2085 17.1475 21.2322 16.1238 21.2322 12.0289V5.88646C21.2322 1.79153 20.2085 0.767799 16.1135 0.767799Z" stroke="#292D32" stroke-width="1.5" stroke-linecap="round" stroke-linejoin="round"/>
<path d="M7.92193 0.767799V4.35086" stroke="#292D32" stroke-width="1.5" stroke-linecap="round" stroke-linejoin="round"/>
<path d="M7.92193 13.5645V17.1475" stroke="#292D32" stroke-width="1.5" stroke-linecap="round" stroke-linejoin="round"/>
<path d="M14.0969 6.22445L14.7316 7.50412C14.7931 7.62697 14.9159 7.7191 15.049 7.73958L16.4618 7.94432C16.8098 7.99551 16.9531 8.42548 16.6972 8.67117L15.6735 9.66419C15.5711 9.75633 15.5302 9.89965 15.5506 10.043L15.7963 11.4455C15.8578 11.7936 15.4892 12.0597 15.1821 11.8959L13.9229 11.2305C13.8 11.1691 13.6465 11.1691 13.5236 11.2305L12.2645 11.8959C11.9471 12.0597 11.5888 11.7936 11.6502 11.4455L11.8959 10.043C11.9164 9.89965 11.8754 9.76657 11.7731 9.66419L10.7596 8.67117C10.5036 8.42548 10.647 7.99551 10.995 7.94432L12.4078 7.73958C12.5511 7.7191 12.6637 7.6372 12.7251 7.50412L13.3496 6.22445C13.4929 5.9071 13.9434 5.9071 14.0969 6.22445Z" stroke="#292D32" stroke-width="1.5" stroke-linecap="round" stroke-linejoin="round"/>
</svg>
