<svg width="21" height="21" viewBox="0 0 21 21" fill="none" xmlns="http://www.w3.org/2000/svg">
<path d="M7.97554 12.2055C7.97554 13.151 8.6978 13.9113 9.58376 13.9113H11.3942C12.1646 13.9113 12.7905 13.2485 12.7905 12.42C12.7905 11.533 12.4053 11.2113 11.8372 11.0067L8.93854 9.98321C8.37037 9.77852 7.98518 9.46662 7.98518 8.56989C7.98518 7.75113 8.61111 7.07859 9.38151 7.07859H11.192C12.0779 7.07859 12.8002 7.83886 12.8002 8.78433" stroke="#292D32" stroke-width="1.5" stroke-linecap="round" stroke-linejoin="round"/>
<path d="M10.3831 6.1135V14.8859" stroke="#292D32" stroke-width="1.5" stroke-linecap="round" stroke-linejoin="round"/>
<path d="M20.0128 10.4999C20.0128 15.8803 15.6986 20.247 10.3828 20.247C5.06709 20.247 0.752853 15.8803 0.752853 10.4999C0.752853 5.11955 5.06709 0.752853 10.3828 0.752853" stroke="#292D32" stroke-width="1.5" stroke-linecap="round" stroke-linejoin="round"/>
<path d="M15.1972 1.72725V5.62608H19.0492" stroke="#292D32" stroke-width="1.5" stroke-linecap="round" stroke-linejoin="round"/>
<path d="M20.0122 0.752853L15.1972 5.6264" stroke="#292D32" stroke-width="1.5" stroke-linecap="round" stroke-linejoin="round"/>
</svg>
