<svg width="22" height="22" viewBox="0 0 22 22" fill="none" xmlns="http://www.w3.org/2000/svg">
<path d="M7.93023 21.2326H14.0698C19.186 21.2326 21.2326 19.186 21.2326 14.0698V7.93023C21.2326 2.81395 19.186 0.767442 14.0698 0.767442H7.93023C2.81395 0.767442 0.767442 2.81395 0.767442 7.93023V14.0698C0.767442 19.186 2.81395 21.2326 7.93023 21.2326Z" stroke="#292D32" stroke-width="1.5" stroke-linecap="round" stroke-linejoin="round"/>
<path d="M8.03216 11V9.48557C8.03216 7.53115 9.41355 6.74325 11.1019 7.71534L12.4117 8.47255L13.7215 9.22976C15.4098 10.2019 15.4098 11.7981 13.7215 12.7702L12.4117 13.5274L11.1019 14.2846C9.41355 15.2567 8.03216 14.4586 8.03216 12.5144V11Z" stroke="#292D32" stroke-width="1.5" stroke-miterlimit="10" stroke-linecap="round" stroke-linejoin="round"/>
</svg>
