<svg width="22" height="18" viewBox="0 0 22 18" fill="none" xmlns="http://www.w3.org/2000/svg">
<path d="M16.1134 0.767791H5.87616C1.95531 0.767791 0.859925 1.70961 0.767791 5.37453C2.74357 5.37453 4.34058 6.98178 4.34058 8.95756C4.34058 10.9333 2.74357 12.5303 0.767791 12.5406C0.859925 16.2055 1.95531 17.1473 5.87616 17.1473H16.1134C20.2082 17.1473 21.232 16.1236 21.232 12.0287V5.88639C21.232 1.79151 20.2082 0.767791 16.1134 0.767791Z" stroke="#292D32" stroke-width="1.5" stroke-linecap="round" stroke-linejoin="round"/>
<path d="M7.92184 0.767791V4.35081" stroke="#292D32" stroke-width="1.5" stroke-linecap="round" stroke-linejoin="round"/>
<path d="M7.92184 13.5643V17.1473" stroke="#292D32" stroke-width="1.5" stroke-linecap="round" stroke-linejoin="round"/>
<path d="M14.0968 6.22438L14.7315 7.50403C14.7929 7.62688 14.9157 7.71902 15.0488 7.73949L16.4616 7.94423C16.8096 7.99542 16.953 8.42538 16.697 8.67108L15.6733 9.66408C15.5709 9.75622 15.53 9.89954 15.5505 10.0429L15.7961 11.4454C15.8576 11.7934 15.489 12.0596 15.1819 11.8958L13.9227 11.2304C13.7999 11.169 13.6463 11.169 13.5235 11.2304L12.2643 11.8958C11.947 12.0596 11.5887 11.7934 11.6501 11.4454L11.8958 10.0429C11.9162 9.89954 11.8753 9.76646 11.7729 9.66408L10.7594 8.67108C10.5035 8.42538 10.6468 7.99542 10.9949 7.94423L12.4076 7.73949C12.551 7.71902 12.6636 7.63712 12.725 7.50403L13.3495 6.22438C13.4928 5.90703 13.9432 5.90703 14.0968 6.22438Z" stroke="#292D32" stroke-width="1.5" stroke-linecap="round" stroke-linejoin="round"/>
</svg>
