<svg width="29" height="29" viewBox="0 0 29 29" fill="none" xmlns="http://www.w3.org/2000/svg">
<g clip-path="url(#clip0_439_3034)">
<path fill-rule="evenodd" clip-rule="evenodd" d="M9.30237 17.0544C5.05719 17.0544 1.55031 13.5475 1.55031 9.30237C1.55031 5.05719 5.05124 1.55031 9.29641 1.55031C13.5416 1.55031 17.0544 5.05719 17.0544 9.30237C17.0544 13.5475 13.5475 17.0544 9.30237 17.0544ZM8.34969 13.1964C8.56998 13.1964 8.76051 13.0952 8.9034 12.8749L12.9045 6.60534C12.9938 6.47436 13.0712 6.3136 13.0712 6.17071C13.0712 5.85515 12.7913 5.65866 12.4996 5.65866C12.3269 5.65866 12.1543 5.75988 12.0233 5.96232L8.31992 11.8508L6.34915 9.37989C6.19435 9.18341 6.03359 9.11196 5.84307 9.11196C5.55132 9.11196 5.30721 9.34417 5.30721 9.65973C5.30721 9.80858 5.36675 9.96934 5.46797 10.0944L7.7662 12.8808C7.95077 13.1071 8.12939 13.1964 8.34969 13.1964Z" fill="#0A7AFF"/>
</g>
<defs>
<clipPath id="clip0_439_3034">
<rect width="15.338" height="15.338" fill="white" transform="translate(1.55031 1.55031) scale(1.01083)"/>
</clipPath>
</defs>
</svg>
