<svg width="556" height="122" viewBox="0 0 556 122" fill="none" xmlns="http://www.w3.org/2000/svg">
<path d="M0 50.5495H20.8799V121.319H0V50.5495Z" fill="#34C759"/>
<path d="M59.4583 101.099H80.3381V121.318H59.4583V101.099Z" fill="#34C759"/>
<path d="M118.916 10.1099H139.795V121.319H118.916V10.1099Z" fill="#34C759"/>
<path d="M178.374 30.3296H199.254V121.318H178.374V30.3296Z" fill="#34C759"/>
<path d="M237.831 0H258.711V121.318H237.831V0Z" fill="#34C759"/>
<path d="M297.289 30.3296H318.169V121.318H297.289V30.3296Z" fill="#34C759"/>
<path d="M356.748 40.4395H377.628V121.318H356.748V40.4395Z" fill="#34C759"/>
<path d="M416.205 0H437.085V121.318H416.205V0Z" fill="#34C759"/>
<path d="M475.663 111.209H496.543V121.318H475.663V111.209Z" fill="#34C759"/>
<path d="M535.121 80.879H556V121.319H535.121V80.879Z" fill="#34C759"/>
</svg>
