<svg width="19" height="19" viewBox="0 0 19 19" fill="none" xmlns="http://www.w3.org/2000/svg">
<path d="M7.32107 11.0255C7.32107 11.871 7.97475 12.5508 8.77658 12.5508H10.4151C11.1123 12.5508 11.6788 11.9581 11.6788 11.2173C11.6788 10.4242 11.3302 10.1366 10.816 9.95354L8.19262 9.0384C7.67841 8.85538 7.32979 8.57648 7.32979 7.77465C7.32979 7.04254 7.89629 6.44117 8.59353 6.44117H10.2321C11.0339 6.44117 11.6876 7.12098 11.6876 7.96639" stroke="#292D32" stroke-width="1.5" stroke-linecap="round" stroke-linejoin="round"/>
<path d="M9.49987 5.57813V13.4221" stroke="#292D32" stroke-width="1.5" stroke-linecap="round" stroke-linejoin="round"/>
<path d="M18.2155 9.49996C18.2155 14.3109 14.3109 18.2155 9.49996 18.2155C4.68897 18.2155 0.7844 14.3109 0.7844 9.49996C0.7844 4.68897 4.68897 0.7844 9.49996 0.7844" stroke="#292D32" stroke-width="1.5" stroke-linecap="round" stroke-linejoin="round"/>
<path d="M13.8577 1.65613V5.14235H17.344" stroke="#292D32" stroke-width="1.5" stroke-linecap="round" stroke-linejoin="round"/>
<path d="M18.2155 0.7844L13.8577 5.14218" stroke="#292D32" stroke-width="1.5" stroke-linecap="round" stroke-linejoin="round"/>
</svg>
