<svg width="29" height="29" viewBox="0 0 29 29" fill="none" xmlns="http://www.w3.org/2000/svg">
<g clip-path="url(#clip0_339_313)">
<path fill-rule="evenodd" clip-rule="evenodd" d="M9.30278 17.0543C5.05764 17.0543 1.55079 13.5474 1.55079 9.30229C1.55079 5.05715 5.05169 1.55029 9.29683 1.55029C13.542 1.55029 17.0548 5.05715 17.0548 9.30229C17.0548 13.5474 13.5479 17.0543 9.30278 17.0543ZM8.35013 13.1961C8.57042 13.1961 8.76095 13.0949 8.90384 12.8746L12.9049 6.60517C12.9942 6.47418 13.0716 6.31342 13.0716 6.17053C13.0716 5.85497 12.7917 5.65849 12.5 5.65849C12.3273 5.65849 12.1547 5.75971 12.0237 5.96214L8.32036 11.8506L6.34961 9.37969C6.19481 9.18321 6.03405 9.11176 5.84353 9.11176C5.55179 9.11176 5.30768 9.34397 5.30768 9.65952C5.30768 9.80837 5.36722 9.96913 5.46843 10.0942L7.76664 12.8806C7.95122 13.1068 8.12983 13.1961 8.35013 13.1961Z" fill="#0A7AFF"/>
</g>
<defs>
<clipPath id="clip0_339_313">
<rect width="15.338" height="15.338" fill="white" transform="translate(1.55079 1.55029) scale(1.01082)"/>
</clipPath>
</defs>
</svg>
