<svg width="22" height="22" viewBox="0 0 22 22" fill="none" xmlns="http://www.w3.org/2000/svg">
<path d="M13.3152 15.0921H8.1986" stroke="#292D32" stroke-width="1.5" stroke-miterlimit="10" stroke-linecap="round" stroke-linejoin="round"/>
<path d="M11.6761 1.29772L11.6454 1.36935L8.67776 8.25633H5.76128C5.06542 8.25633 4.40026 8.39959 3.7965 8.65543L5.58732 4.37793L5.62825 4.27559L5.69988 4.11186C5.72035 4.05046 5.74082 3.98906 5.77152 3.9379C7.11207 0.837219 8.62659 0.131125 11.6761 1.29772Z" stroke="#292D32" stroke-width="1.5" stroke-linecap="round" stroke-linejoin="round"/>
<path d="M17.1923 8.46092C16.7319 8.31766 16.2407 8.25626 15.7495 8.25626H8.67828L11.6459 1.36928L11.6766 1.29764C11.8301 1.34881 11.9734 1.42044 12.1269 1.48184L14.3884 2.43354C15.6471 2.95543 16.5272 3.49779 17.0593 4.15272C17.1616 4.27552 17.2435 4.38809 17.3151 4.52112C17.4072 4.66439 17.4789 4.80765 17.5198 4.96115C17.5607 5.05325 17.5914 5.14535 17.6119 5.22721C17.8882 6.08681 17.7245 7.14083 17.1923 8.46092Z" stroke="#292D32" stroke-width="1.5" stroke-linecap="round" stroke-linejoin="round"/>
<path d="M20.7446 13.2504V15.2459C20.7446 15.4505 20.7343 15.6552 20.7241 15.8599C20.5297 19.4313 18.5342 21.2323 14.7479 21.2323H6.76594C6.52034 21.2323 6.27474 21.2119 6.03938 21.1812C2.7852 20.9663 1.04555 19.2266 0.830652 15.9724C0.799953 15.7371 0.779486 15.4915 0.779486 15.2459V13.2504C0.779486 11.1935 2.02794 9.42315 3.80853 8.65566C4.42253 8.39982 5.07745 8.25656 5.77331 8.25656H15.761C16.2624 8.25656 16.7536 8.32819 17.2039 8.46122C19.2403 9.08545 20.7446 10.9888 20.7446 13.2504Z" stroke="#292D32" stroke-width="1.5" stroke-linecap="round" stroke-linejoin="round"/>
<path d="M5.58736 4.37811L3.79654 8.65561C2.01595 9.42311 0.767494 11.1935 0.767494 13.2503V10.252C0.767494 7.34576 2.83461 4.92048 5.58736 4.37811Z" stroke="#292D32" stroke-width="1.5" stroke-linecap="round" stroke-linejoin="round"/>
<path d="M20.7414 10.2513V13.2497C20.7414 10.9984 19.2473 9.08473 17.2007 8.47074C17.7328 7.14041 17.8863 6.09662 17.6305 5.2268C17.61 5.1347 17.5793 5.0426 17.5384 4.96073C19.4417 5.94312 20.7414 7.95907 20.7414 10.2513Z" stroke="#292D32" stroke-width="1.5" stroke-linecap="round" stroke-linejoin="round"/>
</svg>
