<svg width="20" height="19" viewBox="0 0 20 19" fill="none" xmlns="http://www.w3.org/2000/svg">
<path d="M10.9951 0.977143L17.024 3.43128C18.7612 4.1338 18.7612 5.29531 17.024 5.99783L10.9951 8.45197C10.3105 8.73297 9.18644 8.73297 8.5018 8.45197L2.47289 5.99783C0.735751 5.29531 0.735751 4.1338 2.47289 3.43128L8.5018 0.977143C9.18644 0.696134 10.3105 0.696134 10.9951 0.977143Z" stroke="#292D32" stroke-width="1.5" stroke-linecap="round" stroke-linejoin="round"/>
<path d="M0.766387 8.54601C0.766387 9.33283 1.41015 10.2414 2.19697 10.5599L9.13533 13.3887C9.66669 13.6042 10.2696 13.6042 10.7907 13.3887L17.7291 10.5599C18.5159 10.2414 19.1597 9.33283 19.1597 8.54601" stroke="#292D32" stroke-width="1.5" stroke-linecap="round" stroke-linejoin="round"/>
<path d="M0.766387 13.2291C0.766387 14.1003 1.3284 14.8871 2.19697 15.243L9.13533 18.0719C9.66669 18.2873 10.2696 18.2873 10.7907 18.0719L17.7291 15.243C18.5976 14.8871 19.1597 14.1003 19.1597 13.2291" stroke="#292D32" stroke-width="1.5" stroke-linecap="round" stroke-linejoin="round"/>
</svg>
