<svg width="22" height="21" viewBox="0 0 22 21" fill="none" xmlns="http://www.w3.org/2000/svg">
<path d="M7.76532 20.2368H13.7673C18.769 20.2368 20.7697 18.2894 20.7697 13.421V7.57882C20.7697 2.71035 18.769 0.762968 13.7673 0.762968H7.76532C2.76364 0.762968 0.762968 2.71035 0.762968 7.57882V13.421C0.762968 18.2894 2.76364 20.2368 7.76532 20.2368Z" stroke="#292D32" stroke-width="1.5" stroke-linecap="round" stroke-linejoin="round"/>
<path d="M7.86513 10.5V9.05895C7.86513 7.1992 9.21558 6.44946 10.8661 7.37447L12.1466 8.095L13.427 8.81553C15.0775 9.74054 15.0775 11.2595 13.427 12.1845L12.1466 12.905L10.8661 13.6256C9.21558 14.5506 7.86513 13.7911 7.86513 11.9411V10.5Z" stroke="#292D32" stroke-width="1.5" stroke-miterlimit="10" stroke-linecap="round" stroke-linejoin="round"/>
</svg>
