<svg width="28" height="24" viewBox="0 0 28 24" fill="none" xmlns="http://www.w3.org/2000/svg">
<path d="M15.4861 1.02162L24.1678 4.10583C26.6693 4.98871 26.6693 6.44841 24.1678 7.33129L15.4861 10.4155C14.5002 10.7686 12.8816 10.7686 11.8957 10.4155L3.214 7.33129C0.712498 6.44841 0.712498 4.98871 3.214 4.10583L11.8957 1.02162C12.8816 0.668468 14.5002 0.668468 15.4861 1.02162Z" stroke="#292D32" stroke-width="1.5" stroke-linecap="round" stroke-linejoin="round"/>
<path d="M0.756757 10.5335C0.756757 11.5223 1.68378 12.6642 2.81682 13.0644L12.8081 16.6195C13.5733 16.8903 14.4414 16.8903 15.1919 16.6195L25.1832 13.0644C26.3162 12.6642 27.2432 11.5223 27.2432 10.5335" stroke="#292D32" stroke-width="1.5" stroke-linecap="round" stroke-linejoin="round"/>
<path d="M0.756757 16.4191C0.756757 17.5138 1.56607 18.5027 2.81682 18.95L12.8081 22.5051C13.5733 22.7758 14.4414 22.7758 15.1919 22.5051L25.1832 18.95C26.4339 18.5027 27.2432 17.5138 27.2432 16.4191" stroke="#292D32" stroke-width="1.5" stroke-linecap="round" stroke-linejoin="round"/>
</svg>
