<svg width="560" height="120" viewBox="0 0 560 120" fill="none" xmlns="http://www.w3.org/2000/svg">
<path d="M0 50H21V120H0V50Z" fill="#59A14F"/>
<path d="M59.7998 100H80.7998V120H59.7998V100Z" fill="#59A14F"/>
<path d="M119.6 10H140.6V120H119.6V10Z" fill="#59A14F"/>
<path d="M179.4 30H200.4V120H179.4V30Z" fill="#59A14F"/>
<path d="M239.2 0H260.2V120H239.2V0Z" fill="#59A14F"/>
<path d="M299 30H320V120H299V30Z" fill="#59A14F"/>
<path d="M358.8 40H379.8V120H358.8V40Z" fill="#59A14F"/>
<path d="M418.6 0H439.6V120H418.6V0Z" fill="#59A14F"/>
<path d="M478.4 110H499.4V120H478.4V110Z" fill="#59A14F"/>
<path d="M538.2 80H559.2V120H538.2V80Z" fill="#59A14F"/>
</svg>
