<svg width="22" height="20" viewBox="0 0 22 20" fill="none" xmlns="http://www.w3.org/2000/svg">
<path d="M20.416 8.48125L19.437 12.5458C18.5978 16.0561 16.9395 17.4758 13.8226 17.1841C13.3231 17.1452 12.7837 17.0577 12.2043 16.9215L10.526 16.5326C6.36018 15.5699 5.07148 13.5668 6.05049 9.50226L7.0295 5.42797C7.2293 4.60144 7.46906 3.88188 7.76875 3.28872C8.93757 0.935555 10.9256 0.303506 14.2622 1.07169L15.9305 1.45092C20.1163 2.40385 21.395 4.41669 20.416 8.48125Z" stroke="#292D32" stroke-width="1.5" stroke-linecap="round" stroke-linejoin="round"/>
<path d="M13.8228 17.1842C13.2034 17.5926 12.4242 17.933 11.4751 18.2344L9.89673 18.74C5.93074 19.9847 3.84284 18.9442 2.55415 15.0839L1.27544 11.243C-0.00327182 7.38259 1.05566 5.34058 5.02165 4.09593L6.60006 3.59029C7.00965 3.46388 7.39925 3.35692 7.76888 3.28885C7.46918 3.88201 7.22943 4.60157 7.02963 5.4281L6.05062 9.50239C5.0716 13.567 6.3603 15.5701 10.5261 16.5327L12.2044 16.9217C12.7838 17.0578 13.3233 17.1453 13.8228 17.1842Z" stroke="#292D32" stroke-width="1.5" stroke-linecap="round" stroke-linejoin="round"/>
<path d="M11.4053 6.62434L16.2504 7.82037" stroke="#292D32" stroke-width="1.5" stroke-linecap="round" stroke-linejoin="round"/>
<path d="M10.4261 10.3874L13.3232 11.107" stroke="#292D32" stroke-width="1.5" stroke-linecap="round" stroke-linejoin="round"/>
</svg>
